<svg xmlns="http://www.w3.org/2000/svg" width="308" height="137.138" viewBox="806 325.268 308 137.138"><g data-name="Layer 2"><g data-name="Layer 1"><g data-name="Group 2"><path d="M928.105 454.347a11.515 11.515 0 0 1-4.879-21.944c18.146-8.476 28.98-22.892 28.98-38.565 0-15.722-11.41-30.64-29.777-38.933-5.795-2.616-8.372-9.435-5.755-15.23 2.616-5.795 9.435-8.371 15.23-5.755 12.666 5.716 23.357 14.035 30.917 24.048 8.117 10.746 12.407 23.151 12.407 35.87 0 12.546-4.175 24.788-12.077 35.428-7.362 9.916-17.808 18.213-30.18 23.996a11.466 11.466 0 0 1-4.866 1.085Z" fill="#e2a721" fill-rule="evenodd" data-name="Path 10"/><path d="M927.587 454.58a11.513 11.513 0 0 1-5.291-21.738c-9.473 4.25-20.322 6.534-31.68 6.534-16.973 0-32.816-5.059-44.61-14.275-10.952-8.548-16.983-19.652-16.983-31.27 0-11.617 6.03-22.723 16.983-31.27 11.794-9.207 27.637-14.276 44.61-14.276 11.01 0 21.545 2.137 30.81 6.15a11.51 11.51 0 0 1 8.827-21.192v-.054c-12.078-5.17-25.612-7.92-39.638-7.92-22.084 0-42.954 6.8-58.775 19.147-7.97 6.223-14.263 13.532-18.705 21.73C808.4 374.88 806 384.197 806 393.838c0 9.64 2.4 18.955 7.135 27.693 4.452 8.196 10.736 15.506 18.705 21.726 15.821 12.345 36.693 19.148 58.775 19.148 14.34 0 28.17-2.871 40.439-8.264a.711.711 0 0 1-.014-.091 11.448 11.448 0 0 1-3.453.53Z" fill="#6f892a" fill-rule="evenodd" data-name="Path 9"/><path d="M952.513 393.838a57.197 57.197 0 0 1 2.386-16.058 60.626 60.626 0 0 1 6.566-14.546 68.243 68.243 0 0 1 9.629-12.164 78.724 78.724 0 0 1 11.638-9.645c8.259-5.612 17.318-9.65 26.666-12.3a102.822 102.822 0 0 1 14.212-2.936c4.772-.63 9.58-.937 14.394-.92 6.358-.02 11.528 5.12 11.546 11.477.018 6.359-5.12 11.528-11.48 11.546h-.066c-3.763.023-7.52.3-11.245.827a79.403 79.403 0 0 0-10.942 2.37c-7.13 2.09-13.89 5.227-19.783 9.32-5.893 4.095-10.896 9.154-14.32 14.848a36.888 36.888 0 0 0-3.906 8.862 33.302 33.302 0 0 0-1.29 9.309c.032 6.63-5.317 12.03-11.946 12.061-6.63.032-12.03-5.316-12.062-11.946v-.115Z" fill="#e2a721" fill-rule="evenodd" data-name="Path 8"/><path d="M1113.748 373.767a25.13 25.13 0 0 0-.156-.781l-.087-.389c-.029-.127-.059-.228-.091-.346l-.203-.673c-.04-.14-.046-.148-.066-.203l-.053-.154-.421-1.214-.43-1.214-.479-1.2c-.323-.81-.641-1.6-1.012-2.374a57.559 57.559 0 0 0-5.059-8.918 64.955 64.955 0 0 0-13.854-14.39 74.587 74.587 0 0 0-8.143-5.371 76.172 76.172 0 0 0-8.627-4.25c-11.405-4.796-23.53-6.925-35.523-6.971a11.509 11.509 0 0 1-.172 22.936c9.309.024 18.549 1.712 26.807 5.193a53.497 53.497 0 0 1 6.134 3.017 51.7 51.7 0 0 1 5.585 3.68 41.889 41.889 0 0 1 8.904 9.213 33.565 33.565 0 0 1 2.087 3.44l-3.345.888-31.808 8.461c-6 1.75-9.508 7.969-7.902 14.01 1.605 6.04 7.738 9.696 13.815 8.236l31.802-8.479 7.95-2.12.995-.266.497-.131.294-.081.724-.219a17.345 17.345 0 0 0 11.737-12.976c.433-2.093.467-4.248.1-6.354Zm-22.477 4.655c.008.014.012.03 0-.007Zm3.891-7.286-.062.019-.124.032-.038.01c.077-.025.155-.046.234-.063Z" fill="#397abe" fill-rule="evenodd" data-name="Path 7"/><path d="M976.412 393.838c.091 6.378 1.882 12.652 5.28 18.415 3.363 5.776 8.335 10.928 14.196 15.119 5.86 4.19 12.631 7.425 19.787 9.598.897.265 1.803.506 2.704.763.9.257 1.821.439 2.738.666l.684.168.694.137 1.386.275c.92.203 1.856.34 2.789.486 3.75.584 7.537.918 11.332 1h.113c5.76.03 10.405 4.724 10.374 10.484-.032 5.76-4.727 10.405-10.487 10.374-4.758.057-9.515-.203-14.238-.78-1.184-.145-2.37-.285-3.548-.497l-1.77-.292-.885-.15-.88-.18c-1.172-.255-2.35-.471-3.515-.76-1.166-.29-2.331-.58-3.491-.893-9.27-2.564-18.272-6.53-26.478-12.065a77.557 77.557 0 0 1-11.563-9.53 65.9 65.9 0 0 1-9.551-12.05 59.61 59.61 0 0 1-6.442-14.423l-.281-.961-.142-.48-.115-.49-.45-1.962-.22-.98c-.067-.328-.115-.66-.174-.991l-.32-1.986c-.117-.661-.168-1.331-.234-1.999l-.183-2.005c-.082-1.338-.097-2.68-.133-4.02-.174-6.354 4.837-11.647 11.192-11.82 6.355-.174 11.647 4.836 11.821 11.191v.087l.01.55Z" fill="#e2a721" fill-rule="evenodd" data-name="Path 6"/></g><g data-name="Group 1"><path d="M928.105 454.347a11.515 11.515 0 0 1-4.879-21.944c18.146-8.476 28.98-22.892 28.98-38.565 0-15.722-11.41-30.64-29.777-38.933-5.795-2.616-8.372-9.435-5.755-15.23 2.616-5.795 9.435-8.371 15.23-5.755 12.666 5.716 23.357 14.035 30.917 24.048 8.117 10.746 12.407 23.151 12.407 35.87 0 12.546-4.175 24.788-12.077 35.428-7.362 9.916-17.808 18.213-30.18 23.996a11.466 11.466 0 0 1-4.866 1.085Z" fill="#e2a721" fill-rule="evenodd" data-name="Path 5"/><path d="M927.587 454.58a11.513 11.513 0 0 1-5.291-21.738c-9.473 4.25-20.322 6.534-31.68 6.534-16.973 0-32.816-5.059-44.61-14.275-10.952-8.548-16.983-19.652-16.983-31.27 0-11.617 6.03-22.723 16.983-31.27 11.794-9.207 27.637-14.276 44.61-14.276 11.01 0 21.545 2.137 30.81 6.15a11.51 11.51 0 0 1 8.827-21.192v-.054c-12.078-5.17-25.612-7.92-39.638-7.92-22.084 0-42.954 6.8-58.775 19.147-7.97 6.223-14.263 13.532-18.705 21.73C808.4 374.88 806 384.197 806 393.838c0 9.64 2.4 18.955 7.135 27.693 4.452 8.196 10.736 15.506 18.705 21.726 15.821 12.345 36.693 19.148 58.775 19.148 14.34 0 28.17-2.871 40.439-8.264a.711.711 0 0 1-.014-.091 11.448 11.448 0 0 1-3.453.53Z" fill="#6f892a" fill-rule="evenodd" data-name="Path 4"/><path d="M952.513 393.838a57.197 57.197 0 0 1 2.386-16.058 60.626 60.626 0 0 1 6.566-14.546 68.243 68.243 0 0 1 9.629-12.164 78.724 78.724 0 0 1 11.638-9.645c8.259-5.612 17.318-9.65 26.666-12.3a102.822 102.822 0 0 1 14.212-2.936c4.772-.63 9.58-.937 14.394-.92 6.358-.02 11.528 5.12 11.546 11.477.018 6.359-5.12 11.528-11.48 11.546h-.066c-3.763.023-7.52.3-11.245.827a79.403 79.403 0 0 0-10.942 2.37c-7.13 2.09-13.89 5.227-19.783 9.32-5.893 4.095-10.896 9.154-14.32 14.848a36.888 36.888 0 0 0-3.906 8.862 33.302 33.302 0 0 0-1.29 9.309c.032 6.63-5.317 12.03-11.946 12.061-6.63.032-12.03-5.316-12.062-11.946v-.115Z" fill="#e2a721" fill-rule="evenodd" data-name="Path 3"/><path d="M1113.748 373.767a25.13 25.13 0 0 0-.156-.781l-.087-.389c-.029-.127-.059-.228-.091-.346l-.203-.673c-.04-.14-.046-.148-.066-.203l-.053-.154-.421-1.214-.43-1.214-.479-1.2c-.323-.81-.641-1.6-1.012-2.374a57.559 57.559 0 0 0-5.059-8.918 64.955 64.955 0 0 0-13.854-14.39 74.587 74.587 0 0 0-8.143-5.371 76.172 76.172 0 0 0-8.627-4.25c-11.405-4.796-23.53-6.925-35.523-6.971a11.509 11.509 0 0 1-.172 22.936c9.309.024 18.549 1.712 26.807 5.193a53.497 53.497 0 0 1 6.134 3.017 51.7 51.7 0 0 1 5.585 3.68 41.889 41.889 0 0 1 8.904 9.213 33.565 33.565 0 0 1 2.087 3.44l-3.345.888-31.808 8.461c-6 1.75-9.508 7.969-7.902 14.01 1.605 6.04 7.738 9.696 13.815 8.236l31.802-8.479 7.95-2.12.995-.266.497-.131.294-.081.724-.219a17.345 17.345 0 0 0 11.737-12.976c.433-2.093.467-4.248.1-6.354Zm-22.477 4.655c.008.014.012.03 0-.007Zm3.891-7.286-.062.019-.124.032-.038.01c.077-.025.155-.046.234-.063Z" fill="#397abe" fill-rule="evenodd" data-name="Path 2"/><path d="M976.412 393.838c.091 6.378 1.882 12.652 5.28 18.415 3.363 5.776 8.335 10.928 14.196 15.119 5.86 4.19 12.631 7.425 19.787 9.598.897.265 1.803.506 2.704.763.9.257 1.821.439 2.738.666l.684.168.694.137 1.386.275c.92.203 1.856.34 2.789.486 3.75.584 7.537.918 11.332 1h.113c5.76.03 10.405 4.724 10.374 10.484-.032 5.76-4.727 10.405-10.487 10.374-4.758.057-9.515-.203-14.238-.78-1.184-.145-2.37-.285-3.548-.497l-1.77-.292-.885-.15-.88-.18c-1.172-.255-2.35-.471-3.515-.76-1.166-.29-2.331-.58-3.491-.893-9.27-2.564-18.272-6.53-26.478-12.065a77.557 77.557 0 0 1-11.563-9.53 65.9 65.9 0 0 1-9.551-12.05 59.61 59.61 0 0 1-6.442-14.423l-.281-.961-.142-.48-.115-.49-.45-1.962-.22-.98c-.067-.328-.115-.66-.174-.991l-.32-1.986c-.117-.661-.168-1.331-.234-1.999l-.183-2.005c-.082-1.338-.097-2.68-.133-4.02-.174-6.354 4.837-11.647 11.192-11.82 6.355-.174 11.647 4.836 11.821 11.191v.087l.01.55Z" fill="#e2a721" fill-rule="evenodd" data-name="Path 1"/></g></g></g></svg>